<?xml version="1.0" encoding="UTF-8" standalone="no"?>
<!-- Created with Inkscape (http://www.inkscape.org/) -->

<svg
   width="210mm"
   height="297mm"
   viewBox="0 0 210 297"
   version="1.1"
   id="svg1"
   inkscape:version="1.4.3 (0d15f75, 2025-12-25)"
   sodipodi:docname="FIRST_ICON_alternative.svg"
   xmlns:inkscape="http://www.inkscape.org/namespaces/inkscape"
   xmlns:sodipodi="http://sodipodi.sourceforge.net/DTD/sodipodi-0.dtd"
   xmlns="http://www.w3.org/2000/svg"
   xmlns:svg="http://www.w3.org/2000/svg">
  <sodipodi:namedview
     id="namedview1"
     pagecolor="#505050"
     bordercolor="#ffffff"
     borderopacity="1"
     inkscape:showpageshadow="0"
     inkscape:pageopacity="0"
     inkscape:pagecheckerboard="1"
     inkscape:deskcolor="#505050"
     inkscape:document-units="mm"
     inkscape:zoom="1"
     inkscape:cx="535"
     inkscape:cy="346.5"
     inkscape:window-width="2400"
     inkscape:window-height="1261"
     inkscape:window-x="-9"
     inkscape:window-y="-9"
     inkscape:window-maximized="1"
     inkscape:current-layer="layer1" />
  <defs
     id="defs1" />
  <g
     inkscape:label="Layer 1"
     inkscape:groupmode="layer"
     id="layer1">
    <path
       id="path19"
       style="fill:none;fill-opacity:0.369128;stroke:#ce9500;stroke-width:3.5;stroke-linecap:square;stroke-linejoin:bevel;stroke-dasharray:none;stroke-opacity:1;paint-order:stroke markers fill"
       inkscape:label="FOURTH"
       d="M 171.10538 50.514339 A 64.773125 34.690575 0 0 1 106.33226 85.204914 A 64.773125 34.690575 0 0 1 41.559135 50.514339 A 64.773125 34.690575 0 0 1 106.33226 15.823765 A 64.773125 34.690575 0 0 1 171.10538 50.514339 L 171.10538 50.514339 " />
    <path
       id="path36"
       style="fill:none;fill-opacity:0.369128;stroke:#ce9500;stroke-width:3.5;stroke-linecap:square;stroke-linejoin:bevel;stroke-dasharray:none;stroke-opacity:1;paint-order:stroke markers fill"
       inkscape:label="FOURTH"
       d="M 107.62557 116.948 A 64.773125 34.690575 0 0 1 106.33226 116.95492 A 64.773125 34.690575 0 0 1 41.559135 82.264343 A 64.773125 34.690575 0 0 1 48.768887 66.358569 " />
    <path
       id="path34"
       style="fill:none;fill-opacity:0.369128;stroke:#ce9500;stroke-width:3.5;stroke-linecap:square;stroke-linejoin:bevel;stroke-dasharray:none;stroke-opacity:1;paint-order:stroke markers fill"
       inkscape:label="FOURTH"
       d="M 163.89563 66.358569 A 64.773125 34.690575 0 0 1 171.10538 82.264343 L 171.10538 82.264343 A 64.773125 34.690575 0 0 1 166.87309 94.598352 " />
    <path
       id="path33"
       style="fill:none;fill-opacity:0.369128;stroke:#ce9500;stroke-width:3.5;stroke-linecap:square;stroke-linejoin:bevel;stroke-dasharray:none;stroke-opacity:1;paint-order:stroke markers fill"
       inkscape:label="FOURTH"
       d="M 97.903764 148.40998 A 64.773125 34.690575 0 0 1 41.559135 114.01436 A 64.773125 34.690575 0 0 1 48.774164 98.103107 " />
    <path
       id="path31"
       style="fill:none;fill-opacity:0.369128;stroke:#ce9500;stroke-width:3.5;stroke-linecap:square;stroke-linejoin:bevel;stroke-dasharray:none;stroke-opacity:1;paint-order:stroke markers fill"
       inkscape:label="FOURTH"
       d="M 110.77295 180.3733 A 64.773125 34.690575 0 0 1 106.33226 180.45492 A 64.773125 34.690575 0 0 1 41.559135 145.76434 A 64.773125 34.690575 0 0 1 48.774796 129.85243 " />
    <ellipse
       style="display:none;fill:none;fill-opacity:0.369128;stroke:#ce9500;stroke-width:1.4;stroke-linecap:square;stroke-linejoin:bevel;stroke-dasharray:none;stroke-opacity:1;paint-order:stroke markers fill;opacity:0"
       id="ellipse19"
       cx="106.33226"
       cy="50.514339"
       rx="64.773125"
       ry="34.690575"
       inkscape:label="FIRST_BASE_ELEMENT"
       sodipodi:insensitive="true" />
    <ellipse
       style="display:inline;opacity:1;fill:#a689eb;fill-opacity:0.327586;stroke:#cea100;stroke-width:0;stroke-linecap:square;stroke-linejoin:bevel;stroke-dasharray:none;stroke-opacity:1;paint-order:stroke markers fill"
       id="path23"
       cx="159.17314"
       cy="150.07532"
       rx="55.686642"
       ry="51.854443" />
    <path
       id="path39"
       style="fill:none;fill-opacity:0.369128;fill-rule:nonzero;stroke:#ce9500;stroke-width:3.5;stroke-linecap:square;stroke-linejoin:bevel;stroke-dasharray:none;stroke-opacity:1;paint-order:stroke markers fill"
       d="m 196.52554,152.62822 h -16.2538 l 0.0542,-39.5279 h -38.22833 l 0.0535,39.5279 h -16.25379 l 35.31411,38.96469 z"
       sodipodi:nodetypes="cccccccc" />
    <ellipse
       style="fill:#cea100;fill-opacity:1;fill-rule:nonzero;stroke:#cea100;stroke-width:3.49999;stroke-linecap:square;stroke-linejoin:bevel;stroke-dasharray:none;stroke-opacity:1;paint-order:stroke markers fill"
       id="path45"
       cx="54.910526"
       cy="85.125343"
       rx="2.3386083"
       ry="2.6192415" />
    <ellipse
       style="fill:#cea100;fill-opacity:1;fill-rule:nonzero;stroke:#cea100;stroke-width:3.49999;stroke-linecap:square;stroke-linejoin:bevel;stroke-dasharray:none;stroke-opacity:1;paint-order:stroke markers fill"
       id="ellipse45"
       cx="54.910526"
       cy="116.87536"
       rx="2.3386083"
       ry="2.6192415" />
    <ellipse
       style="fill:#cea100;fill-opacity:1;fill-rule:nonzero;stroke:#cea100;stroke-width:3.49999;stroke-linecap:square;stroke-linejoin:bevel;stroke-dasharray:none;stroke-opacity:1;paint-order:stroke markers fill"
       id="ellipse46"
       cx="54.910526"
       cy="148.62535"
       rx="2.3386083"
       ry="2.6192415" />
  </g>
  <g
     inkscape:groupmode="layer"
     id="layer3"
     inkscape:label="Layer 2">
    <ellipse
       style="display:none;fill:none;fill-opacity:0.369128;stroke:#ce9500;stroke-width:1.4;stroke-linecap:square;stroke-linejoin:bevel;stroke-dasharray:none;stroke-opacity:1;paint-order:stroke markers fill"
       id="ellipse20"
       cx="-94.751076"
       cy="50.514339"
       rx="64.773125"
       ry="34.690575"
       inkscape:label="FIRST"
       sodipodi:insensitive="true" />
    <path
       id="path20"
       style="display:none;fill:none;fill-opacity:0.369128;stroke:#ce9500;stroke-width:1.4;stroke-linecap:square;stroke-linejoin:bevel;stroke-dasharray:none;stroke-opacity:1;paint-order:stroke markers fill"
       inkscape:label="SECOND"
       d="m -37.18768,66.358569 a 64.773125,34.690575 0 0 1 7.20975,15.905774 v 0 a 64.773125,34.690575 0 0 1 -64.773138,34.690577 64.773125,34.690575 0 0 1 -64.773112,-34.690577 64.773125,34.690575 0 0 1 7.20975,-15.905774"
       sodipodi:insensitive="true" />
    <path
       id="path21"
       style="display:none;fill:none;fill-opacity:0.369128;stroke:#ce9500;stroke-width:1.4;stroke-linecap:square;stroke-linejoin:bevel;stroke-dasharray:none;stroke-opacity:1;paint-order:stroke markers fill"
       inkscape:label="THIRD"
       d="m -37.19296,98.103107 a 64.773125,34.690575 0 0 1 7.21503,15.911253 v 0 a 64.773125,34.690575 0 0 1 -64.773138,34.69057 64.773125,34.690575 0 0 1 -64.773112,-34.69057 64.773125,34.690575 0 0 1 7.21503,-15.911253"
       sodipodi:insensitive="true" />
    <path
       id="path22"
       style="display:none;fill:none;fill-opacity:0.369128;stroke:#ce9500;stroke-width:1.4;stroke-linecap:square;stroke-linejoin:bevel;stroke-dasharray:none;stroke-opacity:1;paint-order:stroke markers fill"
       inkscape:label="FOURTH"
       d="m -37.19359,129.85244 a 64.773125,34.690575 0 0 1 7.21566,15.9119 v 0 a 64.773125,34.690575 0 0 1 -64.773138,34.69058 64.773125,34.690575 0 0 1 -64.773112,-34.69058 64.773125,34.690575 0 0 1 7.21566,-15.91191"
       sodipodi:insensitive="true" />
  </g>
</svg>
